<?xml version="1.0" encoding="UTF-8" standalone="no"?>
<!DOCTYPE svg PUBLIC "-//W3C//DTD SVG 1.1//EN" "http://www.w3.org/Graphics/SVG/1.1/DTD/svg11.dtd">
<!-- Generated by Microsoft Visio, SVG Export node_arch.svg Page-15 -->
<svg xmlns="http://www.w3.org/2000/svg" xmlns:xlink="http://www.w3.org/1999/xlink" xmlns:ev="http://www.w3.org/2001/xml-events"
		xmlns:v="http://schemas.microsoft.com/visio/2003/SVGExtensions/" width="6.18386in" height="3.32112in"
		viewBox="0 0 445.238 239.121" xml:space="preserve" color-interpolation-filters="sRGB" class="st15">
	<v:documentProperties v:langID="1033" v:metric="true" v:viewMarkup="false">
		<v:userDefs>
			<v:ud v:nameU="msvNoAutoConnect" v:val="VT0(1):26"/>
		</v:userDefs>
	</v:documentProperties>

	<style type="text/css">
	<![CDATA[
		.st1 {fill:#ffffff;stroke:#000000;stroke-linecap:round;stroke-linejoin:round;stroke-width:0.24}
		.st2 {stroke:#a5a5a5;stroke-linecap:round;stroke-linejoin:round;stroke-width:0.25}
		.st3 {fill:none;stroke:none;stroke-linecap:round;stroke-linejoin:round;stroke-width:0.25}
		.st4 {fill:#000000;font-family:Times New Roman;font-size:0.75em}
		.st5 {font-size:1em}
		.st6 {marker-end:url(#mrkr5-139);stroke:#000000;stroke-linecap:round;stroke-linejoin:round;stroke-width:0.25}
		.st7 {fill:#000000;fill-opacity:1;stroke:#000000;stroke-opacity:1;stroke-width:0.090252707581227}
		.st8 {fill:#ffffff;stroke:none;stroke-linecap:butt;stroke-width:7.2}
		.st9 {fill:#000000;font-family:Times New Roman;font-size:0.75em;font-weight:bold}
		.st10 {font-size:0.666656em}
		.st11 {font-size:0.888885em}
		.st12 {fill:#ffffff;stroke:none;stroke-linecap:butt}
		.st13 {fill:#ffffff;stroke:#000000;stroke-linecap:round;stroke-linejoin:round;stroke-width:0.5}
		.st14 {fill:#000000;font-family:Times New Roman;font-size:1.00001em;font-weight:bold}
		.st15 {fill:none;fill-rule:evenodd;font-size:12px;overflow:visible;stroke-linecap:square;stroke-miterlimit:3}
	]]>
	</style>

	<defs id="Markers">
		<g id="lend5">
			<path d="M 2 1 L 0 0 L 1.98117 -0.993387 C 1.67173 -0.364515 1.67301 0.372641 1.98465 1.00043 " style="stroke:none"/>
		</g>
		<marker id="mrkr5-139" class="st7" v:arrowType="5" v:arrowSize="2" v:setback="19.39" refX="-19.39" orient="auto"
				markerUnits="strokeWidth" overflow="visible">
			<use xlink:href="#lend5" transform="scale(-11.08,-11.08) "/>
		</marker>
	</defs>
	<g v:mID="22" v:index="3" v:groupContext="foregroundPage">
		<v:userDefs>
			<v:ud v:nameU="PEHideTags"/>
		</v:userDefs>
		<title>Page-15</title>
		<v:pageProperties v:drawingScale="0.0393701" v:pageScale="0.0393701" v:drawingUnits="24" v:shadowOffsetX="8.50394"
				v:shadowOffsetY="-8.50394"/>
		<v:layer v:name="Equipment" v:index="0"/>
		<v:layer v:name="Connector" v:index="1"/>
		<g id="shape30-1" v:mID="30" v:groupContext="shape" transform="translate(163.284,-103.076)">
			<title>Circle.30</title>
			<v:userDefs>
				<v:ud v:nameU="visVersion" v:val="VT0(15):26"/>
			</v:userDefs>
			<path d="M0 228.95 A10.1739 10.1739 0 1 1 20.35 228.95 A10.1739 10.1739 0 0 1 0 228.95 Z" class="st1"/>
		</g>
		<g id="shape31-3" v:mID="31" v:groupContext="shape" transform="translate(162.317,-53.65)">
			<title>Circle.31</title>
			<v:userDefs>
				<v:ud v:nameU="visVersion" v:val="VT0(15):26"/>
			</v:userDefs>
			<path d="M0 228.95 A10.1739 10.1739 0 1 1 20.35 228.95 A10.1739 10.1739 0 0 1 0 228.95 Z" class="st1"/>
		</g>
		<g id="shape36-5" v:mID="36" v:groupContext="shape" transform="translate(164.8,-199.79)">
			<title>Circle.36</title>
			<v:userDefs>
				<v:ud v:nameU="visVersion" v:val="VT0(15):26"/>
			</v:userDefs>
			<path d="M0 228.95 A10.1739 10.1739 0 1 1 20.35 228.95 A10.1739 10.1739 0 0 1 0 228.95 Z" class="st1"/>
		</g>
		<g id="shape37-7" v:mID="37" v:groupContext="shape" transform="translate(163.284,-152.501)">
			<title>Circle.37</title>
			<v:userDefs>
				<v:ud v:nameU="visVersion" v:val="VT0(15):26"/>
			</v:userDefs>
			<path d="M0 228.95 A10.1739 10.1739 0 1 1 20.35 228.95 A10.1739 10.1739 0 0 1 0 228.95 Z" class="st1"/>
		</g>
		<g id="shape43-9" v:mID="43" v:groupContext="shape" transform="translate(224.328,-103.076)">
			<title>Circle.43</title>
			<v:userDefs>
				<v:ud v:nameU="visVersion" v:val="VT0(15):26"/>
			</v:userDefs>
			<path d="M0 228.95 A10.1739 10.1739 0 1 1 20.35 228.95 A10.1739 10.1739 0 0 1 0 228.95 Z" class="st1"/>
		</g>
		<g id="shape44-11" v:mID="44" v:groupContext="shape" transform="translate(223.36,-53.65)">
			<title>Circle.44</title>
			<v:userDefs>
				<v:ud v:nameU="visVersion" v:val="VT0(15):26"/>
			</v:userDefs>
			<path d="M0 228.95 A10.1739 10.1739 0 1 1 20.35 228.95 A10.1739 10.1739 0 0 1 0 228.95 Z" class="st1"/>
		</g>
		<g id="shape49-13" v:mID="49" v:groupContext="shape" transform="translate(225.844,-199.79)">
			<title>Circle.49</title>
			<v:userDefs>
				<v:ud v:nameU="visVersion" v:val="VT0(15):26"/>
			</v:userDefs>
			<path d="M0 228.95 A10.1739 10.1739 0 1 1 20.35 228.95 A10.1739 10.1739 0 0 1 0 228.95 Z" class="st1"/>
		</g>
		<g id="shape50-15" v:mID="50" v:groupContext="shape" transform="translate(225.844,-152.501)">
			<title>Circle.50</title>
			<v:userDefs>
				<v:ud v:nameU="visVersion" v:val="VT0(15):26"/>
			</v:userDefs>
			<path d="M0 228.95 A10.1739 10.1739 0 1 1 20.35 228.95 A10.1739 10.1739 0 0 1 0 228.95 Z" class="st1"/>
		</g>
		<g id="shape54-17" v:mID="54" v:groupContext="shape" transform="translate(340.779,-152.501)">
			<title>Circle</title>
			<v:userDefs>
				<v:ud v:nameU="visVersion" v:val="VT0(15):26"/>
			</v:userDefs>
			<path d="M0 228.95 A10.1739 10.1739 0 1 1 20.35 228.95 A10.1739 10.1739 0 0 1 0 228.95 Z" class="st1"/>
		</g>
		<g id="shape148-19" v:mID="148" v:groupContext="shape" transform="translate(182.665,-63.8239)">
			<title>Sheet.148</title>
			<path d="M0 239.12 L40.7 239.12" class="st2"/>
		</g>
		<g id="shape149-22" v:mID="149" v:groupContext="shape" transform="translate(-0.165747,21.1807) rotate(-49.8709)">
			<title>Sheet.149</title>
			<path d="M0 239.12 L64.64 239.12" class="st2"/>
		</g>
		<g id="shape150-25" v:mID="150" v:groupContext="shape" transform="translate(-36.4631,79.5799) rotate(-66.4039)">
			<title>Sheet.150</title>
			<path d="M0 239.12 L107.87 239.12" class="st2"/>
		</g>
		<g id="shape151-28" v:mID="151" v:groupContext="shape" transform="translate(-46.6558,107.541) rotate(-73.5396)">
			<title>Sheet.151</title>
			<path d="M0 239.12 L152.39 239.12" class="st2"/>
		</g>
		<g id="shape152-31" v:mID="152" v:groupContext="shape" transform="translate(-46.6558,107.541) rotate(-73.5396)">
			<title>Sheet.152</title>
			<path d="M0 239.12 L152.39 239.12" class="st2"/>
		</g>
		<g id="shape160-34" v:mID="160" v:groupContext="shape" transform="translate(370.008,-23.9375) rotate(51.2078)">
			<title>Sheet.160</title>
			<path d="M0 239.12 L63.41 239.12" class="st2"/>
		</g>
		<g id="shape161-37" v:mID="161" v:groupContext="shape" transform="translate(183.632,-113.25)">
			<title>Sheet.161</title>
			<path d="M0 239.12 L40.7 239.12" class="st2"/>
		</g>
		<g id="shape162-40" v:mID="162" v:groupContext="shape" transform="translate(1.79983,-29.4213) rotate(-49.5013)">
			<title>Sheet.162</title>
			<path d="M0 239.12 L65 239.12" class="st2"/>
		</g>
		<g id="shape163-43" v:mID="163" v:groupContext="shape" transform="translate(-35.5241,30.2194) rotate(-66.4209)">
			<title>Sheet.163</title>
			<path d="M0 239.12 L105.53 239.12" class="st2"/>
		</g>
		<g id="shape172-46" v:mID="172" v:groupContext="shape" transform="translate(405.504,-12.7248) rotate(68.1049)">
			<title>Sheet.172</title>
			<path d="M0 239.12 L106.54 239.12" class="st2"/>
		</g>
		<g id="shape173-49" v:mID="173" v:groupContext="shape" transform="translate(368.231,-75.5479) rotate(50.533)">
			<title>Sheet.173</title>
			<path d="M0 239.12 L64.02 239.12" class="st2"/>
		</g>
		<g id="shape174-52" v:mID="174" v:groupContext="shape" transform="translate(183.632,-162.675)">
			<title>Sheet.174</title>
			<path d="M0 239.12 L42.21 239.12" class="st2"/>
		</g>
		<g id="shape175-55" v:mID="175" v:groupContext="shape" transform="translate(5.24261,-82.7899) rotate(-48.247)">
			<title>Sheet.175</title>
			<path d="M0 239.12 L63.39 239.12" class="st2"/>
		</g>
		<g id="shape183-58" v:mID="183" v:groupContext="shape" transform="translate(416.491,-31.3345) rotate(75.3466)">
			<title>Sheet.183</title>
			<path d="M0 239.12 L151.05 239.12" class="st2"/>
		</g>
		<g id="shape184-61" v:mID="184" v:groupContext="shape" transform="translate(406.773,-60.6256) rotate(67.9469)">
			<title>Sheet.184</title>
			<path d="M0 239.12 L104.35 239.12" class="st2"/>
		</g>
		<g id="shape185-64" v:mID="185" v:groupContext="shape" transform="translate(366.394,-126.819) rotate(49.2857)">
			<title>Sheet.185</title>
			<path d="M0 239.12 L62.39 239.12" class="st2"/>
		</g>
		<g id="shape186-67" v:mID="186" v:groupContext="shape" transform="translate(185.148,-209.964)">
			<title>Sheet.186</title>
			<path d="M0 239.12 L40.7 239.12" class="st2"/>
		</g>
		<g id="shape240-70" v:mID="240" v:groupContext="shape" transform="translate(164.8,268.277) rotate(180)">
			<title>Sheet.240</title>
			<path d="M0 239.12 L40.7 239.12" class="st2"/>
		</g>
		<g id="shape241-73" v:mID="241" v:groupContext="shape" transform="translate(-20.849,229.002) rotate(-129.642)">
			<title>Sheet.241</title>
			<path d="M0 239.12 L61.41 239.12" class="st2"/>
		</g>
		<g id="shape242-76" v:mID="242" v:groupContext="shape" transform="translate(-58.3413,215.653) rotate(-112.053)">
			<title>Sheet.242</title>
			<path d="M0 239.12 L104.35 239.12" class="st2"/>
		</g>
		<g id="shape243-79" v:mID="243" v:groupContext="shape" transform="translate(-69.0261,235.787) rotate(-104.653)">
			<title>Sheet.243</title>
			<path d="M0 239.12 L151.05 239.12" class="st2"/>
		</g>
		<g id="shape251-82" v:mID="251" v:groupContext="shape" transform="translate(344.461,-12.7248) rotate(68.1049)">
			<title>Sheet.251</title>
			<path d="M0 239.12 L106.54 239.12" class="st2"/>
		</g>
		<g id="shape252-85" v:mID="252" v:groupContext="shape" transform="translate(307.187,-75.5479) rotate(50.533)">
			<title>Sheet.252</title>
			<path d="M0 239.12 L64.02 239.12" class="st2"/>
		</g>
		<g id="shape254-88" v:mID="254" v:groupContext="shape" transform="translate(122.589,-162.675)">
			<title>Sheet.254</title>
			<path d="M0 239.12 L40.7 239.12" class="st2"/>
		</g>
		<g id="shape255-91" v:mID="255" v:groupContext="shape" transform="translate(-55.8009,-82.7899) rotate(-48.247)">
			<title>Sheet.255</title>
			<path d="M0 239.12 L63.39 239.12" class="st2"/>
		</g>
		<g id="shape263-94" v:mID="263" v:groupContext="shape" transform="translate(308.965,-23.9375) rotate(51.2078)">
			<title>Sheet.263</title>
			<path d="M0 239.12 L63.41 239.12" class="st2"/>
		</g>
		<g id="shape264-97" v:mID="264" v:groupContext="shape" transform="translate(122.589,-113.25)">
			<title>Sheet.264</title>
			<path d="M0 239.12 L40.7 239.12" class="st2"/>
		</g>
		<g id="shape265-100" v:mID="265" v:groupContext="shape" transform="translate(-62.0102,-26.1222) rotate(-50.533)">
			<title>Sheet.265</title>
			<path d="M0 239.12 L64.02 239.12" class="st2"/>
		</g>
		<g id="shape267-103" v:mID="267" v:groupContext="shape" transform="translate(-96.5676,30.2194) rotate(-66.4209)">
			<title>Sheet.267</title>
			<path d="M0 239.12 L105.53 239.12" class="st2"/>
		</g>
		<g id="shape276-106" v:mID="276" v:groupContext="shape" transform="translate(121.621,-63.8239)">
			<title>Sheet.276</title>
			<path d="M0 239.12 L40.7 239.12" class="st2"/>
		</g>
		<g id="shape277-109" v:mID="277" v:groupContext="shape" transform="translate(-61.2092,21.1807) rotate(-49.871)">
			<title>Sheet.277</title>
			<path d="M0 239.12 L64.64 239.12" class="st2"/>
		</g>
		<g id="shape278-112" v:mID="278" v:groupContext="shape" transform="translate(-98.7278,82.4256) rotate(-67.1459)">
			<title>Sheet.278</title>
			<path d="M0 239.12 L107.27 239.12" class="st2"/>
		</g>
		<g id="shape279-115" v:mID="279" v:groupContext="shape" transform="translate(-107.699,107.541) rotate(-73.5396)">
			<title>Sheet.279</title>
			<path d="M0 239.12 L152.39 239.12" class="st2"/>
		</g>
		<g id="shape285-118" v:mID="285" v:groupContext="shape" transform="translate(89.7375,-18.125)">
			<title>Sheet.285</title>
			<desc>Input Layer</desc>
			<v:textBlock v:margins="rect(4,4,4,4)" v:tabSpace="42.5197"/>
			<v:textRect cx="22.6772" cy="221.359" width="45.36" height="35.5227"/>
			<rect x="0" y="203.598" width="45.3543" height="35.5227" class="st3"/>
			<text x="13.18" y="218.66" class="st4" v:langID="1033"><v:paragraph v:horizAlign="1"/><v:tabList/>Input <tspan
						x="12.19" dy="1.2em" class="st5">Layer</tspan></text>		</g>
		<g id="shape286-122" v:mID="286" v:groupContext="shape" transform="translate(150.781,-18.125)">
			<title>Sheet.286</title>
			<desc>Hidden Layer 1</desc>
			<v:textBlock v:margins="rect(4,4,4,4)" v:tabSpace="42.5197"/>
			<v:textRect cx="22.6772" cy="221.359" width="45.36" height="35.5227"/>
			<rect x="0" y="203.598" width="45.3543" height="35.5227" class="st3"/>
			<text x="9.43" y="218.66" class="st4" v:langID="1033"><v:paragraph v:horizAlign="1"/><v:tabList/>Hidden <tspan x="8.81"
						dy="1.2em" class="st5">Layer 1</tspan></text>		</g>
		<g id="shape287-126" v:mID="287" v:groupContext="shape" transform="translate(211.824,-18.125)">
			<title>Sheet.287</title>
			<desc>Hidden Layer 2</desc>
			<v:textBlock v:margins="rect(4,4,4,4)" v:tabSpace="42.5197"/>
			<v:textRect cx="22.6772" cy="221.359" width="45.36" height="35.5227"/>
			<rect x="0" y="203.598" width="45.3543" height="35.5227" class="st3"/>
			<text x="9.43" y="218.66" class="st4" v:langID="1033"><v:paragraph v:horizAlign="1"/><v:tabList/>Hidden <tspan x="8.81"
						dy="1.2em" class="st5">Layer 2</tspan></text>		</g>
		<g id="shape288-130" v:mID="288" v:groupContext="shape" transform="translate(270.808,-18.125)">
			<title>Sheet.288</title>
			<desc>ODE Solver</desc>
			<v:textBlock v:margins="rect(4,4,4,4)" v:tabSpace="42.5197"/>
			<v:textRect cx="22.6772" cy="221.359" width="45.36" height="35.5227"/>
			<rect x="0" y="203.598" width="45.3543" height="35.5227" class="st3"/>
			<text x="13.43" y="218.66" class="st4" v:langID="1033"><v:paragraph v:horizAlign="1"/><v:tabList/>ODE <tspan x="10.93"
						dy="1.2em" class="st5">Solver</tspan></text>		</g>
		<g id="shape1003-134" v:mID="1003" v:groupContext="shape" transform="translate(25.0891,-209.964)">
			<title>Sheet.1003</title>
			<desc>CO2 (t=0)</desc>
			<v:textBlock v:margins="rect(4,4,4,4)" v:tabSpace="42.5197"/>
			<v:textRect cx="39.3338" cy="239.121" width="78.67" height="0"/>
			<path d="M0 239.12 L73.82 239.12" class="st6"/>
			<rect v:rectContext="textBkgnd" x="21.8081" y="233.721" width="35.0513" height="10.7998" class="st8"/>
			<text x="21.81" y="241.82" class="st9" v:langID="1033"><v:paragraph v:horizAlign="1"/><v:tabList/>CO<tspan class="st10">2</tspan><tspan
						class="st11"> </tspan><tspan class="st11">(t=0)</tspan></text>		</g>
		<g id="shape1004-145" v:mID="1004" v:groupContext="shape" transform="translate(24.1939,-162.675)">
			<title>Sheet.1004</title>
			<desc>NaOH (t=0)</desc>
			<v:textBlock v:margins="rect(4,4,4,4)" v:tabSpace="42.5197"/>
			<v:textRect cx="39.0234" cy="239.121" width="78.05" height="0"/>
			<path d="M0 239.12 L73.2 239.12" class="st6"/>
			<rect v:rectContext="textBkgnd" x="17.2477" y="233.721" width="43.5517" height="10.7998" class="st12"/>
			<text x="17.25" y="241.82" class="st9" v:langID="1033"><v:paragraph v:horizAlign="1"/><v:tabList/>NaOH<tspan
						class="st11"> </tspan><tspan class="st11">(t=0)</tspan></text>		</g>
		<g id="shape1005-154" v:mID="1005" v:groupContext="shape" transform="translate(25.0891,-113.25)">
			<title>Sheet.1005</title>
			<desc>CO2 (i)</desc>
			<v:textBlock v:margins="rect(4,4,4,4)" v:tabSpace="42.5197"/>
			<v:textRect cx="38.5758" cy="239.121" width="77.16" height="0"/>
			<path d="M0 239.12 L72.3 239.12" class="st6"/>
			<rect v:rectContext="textBkgnd" x="25.5504" y="233.721" width="26.0511" height="10.7998" class="st12"/>
			<text x="25.55" y="241.82" class="st9" v:langID="1033"><v:paragraph v:horizAlign="1"/><v:tabList/>CO<tspan class="st10">2</tspan><tspan
						class="st11"> </tspan><tspan class="st11">(i)</tspan></text>		</g>
		<g id="shape1006-164" v:mID="1006" v:groupContext="shape" transform="translate(28.4417,-64.8687) rotate(0.803352)">
			<title>Sheet.1006</title>
			<desc>NaOH (i)</desc>
			<v:textBlock v:margins="rect(4,4,4,4)" v:tabSpace="42.5197"/>
			<v:textRect cx="38.0958" cy="239.121" width="76.2" height="0"/>
			<path d="M0 239.12 L71.34 239.12" class="st6"/>
			<rect v:rectContext="textBkgnd" x="20.8202" y="233.721" width="34.5515" height="10.7998" class="st12"/>
			<text x="20.82" y="241.82" class="st9" v:langID="1033"><v:paragraph v:horizAlign="1"/><v:tabList/>NaOH<tspan
						class="st11"> </tspan><tspan class="st11">(i)</tspan></text>		</g>
		<g id="shape1007-173" v:mID="1007" v:groupContext="shape" transform="translate(361.127,-162.675)">
			<title>Sheet.1007</title>
			<desc>CO2 (t)</desc>
			<v:textBlock v:margins="rect(4,4,4,4)" v:tabSpace="42.5197"/>
			<v:textRect cx="29.9587" cy="239.121" width="59.92" height="0"/>
			<path d="M0 239.12 L55.07 239.12" class="st6"/>
			<rect v:rectContext="textBkgnd" x="16.7124" y="233.721" width="26.4927" height="10.7998" class="st12"/>
			<text x="16.71" y="241.82" class="st9" v:langID="1033"><v:paragraph v:horizAlign="1"/><v:tabList/>CO<tspan class="st10">2</tspan><tspan
						class="st11"> </tspan><tspan class="st11">(t)</tspan></text>		</g>
		<g id="shape1009-183" v:mID="1009" v:groupContext="shape" transform="translate(24.2438,80.354) rotate(-66.6062)">
			<title>Sheet.1009</title>
			<path d="M0 239.12 L80.75 239.12" class="st2"/>
		</g>
		<g id="shape1010-186" v:mID="1010" v:groupContext="shape" transform="translate(95.9989,-61.4093) rotate(-38.4451)">
			<title>Sheet.1010</title>
			<path d="M0 239.12 L39.7 239.12" class="st2"/>
		</g>
		<g id="shape1011-189" v:mID="1011" v:groupContext="shape" transform="translate(399.616,-106.965) rotate(39.9128)">
			<title>Sheet.1011</title>
			<path d="M0 239.12 L38.56 239.12" class="st2"/>
		</g>
		<g id="shape1012-192" v:mID="1012" v:groupContext="shape" transform="translate(467.39,-61.6724) rotate(67.676)">
			<title>Sheet.1012</title>
			<path d="M0 239.12 L77.87 239.12" class="st2"/>
		</g>
		<g id="shape1022-195" v:mID="1022" v:groupContext="shape" transform="translate(72.0812,186.203) rotate(-90)">
			<title>Sheet.1022</title>
			<desc>ODE Solver</desc>
			<v:textBlock v:margins="rect(4,4,4,4)" v:tabSpace="42.5197"/>
			<v:textRect cx="83.9764" cy="221.404" width="167.96" height="35.4331"/>
			<rect x="0" y="203.687" width="167.953" height="35.4331" class="st13"/>
			<text x="53.14" y="225" class="st14" v:langID="1033"><v:paragraph v:horizAlign="1"/><v:tabList/>ODE Solver</text>		</g>
		<g id="group1023-198" transform="translate(101.273,-53.65)" v:mID="1023" v:groupContext="group">
			<title>Sheet.1023</title>
			<g id="shape26-199" v:mID="26" v:groupContext="shape" transform="translate(2.48341,-146.14)">
				<title>Circle.26</title>
				<v:userDefs>
					<v:ud v:nameU="visVersion" v:val="VT0(15):26"/>
				</v:userDefs>
				<path d="M0 228.95 A10.1739 10.1739 0 0 1 20.35 228.95 A10.1739 10.1739 0 1 1 0 228.95 Z" class="st1"/>
			</g>
			<g id="shape27-201" v:mID="27" v:groupContext="shape" transform="translate(0.967483,-98.8513)">
				<title>Circle.27</title>
				<v:userDefs>
					<v:ud v:nameU="visVersion" v:val="VT0(15):26"/>
				</v:userDefs>
				<path d="M0 228.95 A10.1739 10.1739 0 0 1 20.35 228.95 A10.1739 10.1739 0 1 1 0 228.95 Z" class="st1"/>
			</g>
			<g id="shape28-203" v:mID="28" v:groupContext="shape" transform="translate(0.967483,-49.4257)">
				<title>Circle.28</title>
				<v:userDefs>
					<v:ud v:nameU="visVersion" v:val="VT0(15):26"/>
				</v:userDefs>
				<path d="M0 228.95 A10.1739 10.1739 0 0 1 20.35 228.95 A10.1739 10.1739 0 1 1 0 228.95 Z" class="st1"/>
			</g>
			<g id="shape29-205" v:mID="29" v:groupContext="shape">
				<title>Circle.29</title>
				<v:userDefs>
					<v:ud v:nameU="visVersion" v:val="VT0(15):26"/>
				</v:userDefs>
				<path d="M0 228.95 A10.1739 10.1739 0 0 1 20.35 228.95 A10.1739 10.1739 0 1 1 0 228.95 Z" class="st1"/>
			</g>
		</g>
		<g id="shape1024-207" v:mID="1024" v:groupContext="shape" transform="translate(311.438,-162.675)">
			<title>Sheet.1024</title>
			<path d="M0 239.12 L29.34 239.12" class="st2"/>
		</g>
		<g id="shape1025-210" v:mID="1025" v:groupContext="shape" transform="translate(328.276,-18.125)">
			<title>Sheet.1025</title>
			<desc>Output Layer</desc>
			<v:textBlock v:margins="rect(4,4,4,4)" v:tabSpace="42.5197"/>
			<v:textRect cx="22.6772" cy="221.359" width="45.36" height="35.5227"/>
			<rect x="0" y="203.598" width="45.3543" height="35.5227" class="st3"/>
			<text x="10.18" y="218.66" class="st4" v:langID="1033"><v:paragraph v:horizAlign="1"/><v:tabList/>Output <tspan
						x="12.19" dy="1.2em" class="st5">Layer</tspan></text>		</g>
		<g id="shape1026-214" v:mID="1026" v:groupContext="shape" transform="translate(340.779,-103.413)">
			<title>Circle.1026</title>
			<v:userDefs>
				<v:ud v:nameU="visVersion" v:val="VT0(15):26"/>
			</v:userDefs>
			<path d="M0 228.95 A10.1739 10.1739 0 1 1 20.35 228.95 A10.1739 10.1739 0 0 1 0 228.95 Z" class="st1"/>
		</g>
		<g id="shape1027-216" v:mID="1027" v:groupContext="shape" transform="translate(311.438,-113.586)">
			<title>Sheet.1027</title>
			<path d="M0 239.12 L29.34 239.12" class="st2"/>
		</g>
		<g id="shape1028-219" v:mID="1028" v:groupContext="shape" transform="translate(361.127,-113.586)">
			<title>Sheet.1028</title>
			<desc>NaOH (t)</desc>
			<v:textBlock v:margins="rect(4,4,4,4)" v:tabSpace="42.5197"/>
			<v:textRect cx="29.1237" cy="239.121" width="58.25" height="0"/>
			<path d="M0 239.12 L53.4 239.12" class="st6"/>
			<rect v:rectContext="textBkgnd" x="11.6271" y="233.721" width="34.9931" height="10.7998" class="st8"/>
			<text x="11.63" y="241.82" class="st9" v:langID="1033"><v:paragraph v:horizAlign="1"/><v:tabList/>NaOH<tspan
						class="st11"> </tspan><tspan class="st11">(t)</tspan></text>		</g>
	</g>
</svg>
