<?xml version="1.0" encoding="UTF-8" standalone="no"?>
<!DOCTYPE svg PUBLIC "-//W3C//DTD SVG 1.1//EN" "http://www.w3.org/Graphics/SVG/1.1/DTD/svg11.dtd">
<!-- Generated by Microsoft Visio, SVG Export fig_4.2_rnn_arch.svg Page-14 -->
<svg xmlns="http://www.w3.org/2000/svg" xmlns:xlink="http://www.w3.org/1999/xlink" xmlns:ev="http://www.w3.org/2001/xml-events"
		xmlns:v="http://schemas.microsoft.com/visio/2003/SVGExtensions/" width="5.34984in" height="3.58819in"
		viewBox="0 0 385.188 258.35" xml:space="preserve" color-interpolation-filters="sRGB" class="st19">
	<v:documentProperties v:langID="1033" v:metric="true" v:viewMarkup="false">
		<v:userDefs>
			<v:ud v:nameU="msvNoAutoConnect" v:val="VT0(1):26"/>
		</v:userDefs>
	</v:documentProperties>

	<style type="text/css">
	<![CDATA[
		.st1 {fill:#ffffff;stroke:#000000;stroke-linecap:round;stroke-linejoin:round;stroke-width:0.24}
		.st2 {stroke:#a5a5a5;stroke-linecap:round;stroke-linejoin:round;stroke-width:0.25}
		.st3 {fill:none;stroke:none;stroke-linecap:round;stroke-linejoin:round;stroke-width:0.25}
		.st4 {fill:#000000;font-family:Times New Roman;font-size:0.75em}
		.st5 {font-size:1em}
		.st6 {marker-end:url(#mrkr5-159);stroke:#000000;stroke-linecap:round;stroke-linejoin:round;stroke-width:0.25}
		.st7 {fill:#000000;fill-opacity:1;stroke:#000000;stroke-opacity:1;stroke-width:0.090252707581227}
		.st8 {fill:#ffffff;stroke:none;stroke-linecap:butt}
		.st9 {fill:#000000;font-family:Times New Roman;font-size:1.00001em;font-weight:bold}
		.st10 {font-size:0.499989em}
		.st11 {marker-end:url(#mrkr5-182);stroke:#000000;stroke-linecap:round;stroke-linejoin:round;stroke-width:0.5}
		.st12 {fill:#000000;fill-opacity:1;stroke:#000000;stroke-opacity:1;stroke-width:0.16556291390728}
		.st13 {fill:#000000;font-family:Times New Roman;font-size:0.75em;font-style:italic;font-weight:bold}
		.st14 {fill:#ffffff;stroke:none;stroke-linecap:butt;stroke-width:7.2}
		.st15 {fill:#000000;font-family:Times New Roman;font-size:0.666664em;font-style:italic;font-weight:bold}
		.st16 {fill:#000000;font-family:Times New Roman;font-size:0.75em;font-weight:bold}
		.st17 {font-size:0.666656em}
		.st18 {font-size:0.888885em}
		.st19 {fill:none;fill-rule:evenodd;font-size:12px;overflow:visible;stroke-linecap:square;stroke-miterlimit:3}
	]]>
	</style>

	<defs id="Markers">
		<g id="lend5">
			<path d="M 2 1 L 0 0 L 1.98117 -0.993387 C 1.67173 -0.364515 1.67301 0.372641 1.98465 1.00043 " style="stroke:none"/>
		</g>
		<marker id="mrkr5-159" class="st7" v:arrowType="5" v:arrowSize="2" v:setback="19.39" refX="-19.39" orient="auto"
				markerUnits="strokeWidth" overflow="visible">
			<use xlink:href="#lend5" transform="scale(-11.08,-11.08) "/>
		</marker>
		<marker id="mrkr5-182" class="st12" v:arrowType="5" v:arrowSize="2" v:setback="10.57" refX="-10.57" orient="auto"
				markerUnits="strokeWidth" overflow="visible">
			<use xlink:href="#lend5" transform="scale(-6.04,-6.04) "/>
		</marker>
	</defs>
	<g v:mID="21" v:index="2" v:groupContext="foregroundPage">
		<v:userDefs>
			<v:ud v:nameU="PEHideTags"/>
		</v:userDefs>
		<title>Page-14</title>
		<v:pageProperties v:drawingScale="0.0393701" v:pageScale="0.0393701" v:drawingUnits="24" v:shadowOffsetX="8.50394"
				v:shadowOffsetY="-8.50394"/>
		<v:layer v:name="Equipment" v:index="0"/>
		<v:layer v:name="Connector" v:index="1"/>
		<g id="shape26-1" v:mID="26" v:groupContext="shape" transform="translate(103.757,-202.377)">
			<title>Circle.26</title>
			<v:userDefs>
				<v:ud v:nameU="visVersion" v:val="VT0(15):26"/>
			</v:userDefs>
			<path d="M0 248.18 A10.1739 10.1739 0 0 1 20.35 248.18 A10.1739 10.1739 0 1 1 0 248.18 Z" class="st1"/>
		</g>
		<g id="shape27-3" v:mID="27" v:groupContext="shape" transform="translate(102.241,-155.088)">
			<title>Circle.27</title>
			<v:userDefs>
				<v:ud v:nameU="visVersion" v:val="VT0(15):26"/>
			</v:userDefs>
			<path d="M0 248.18 A10.1739 10.1739 0 0 1 20.35 248.18 A10.1739 10.1739 0 1 1 0 248.18 Z" class="st1"/>
		</g>
		<g id="shape28-5" v:mID="28" v:groupContext="shape" transform="translate(102.241,-105.662)">
			<title>Circle.28</title>
			<v:userDefs>
				<v:ud v:nameU="visVersion" v:val="VT0(15):26"/>
			</v:userDefs>
			<path d="M0 248.18 A10.1739 10.1739 0 0 1 20.35 248.18 A10.1739 10.1739 0 1 1 0 248.18 Z" class="st1"/>
		</g>
		<g id="shape29-7" v:mID="29" v:groupContext="shape" transform="translate(101.273,-56.2365)">
			<title>Circle.29</title>
			<v:userDefs>
				<v:ud v:nameU="visVersion" v:val="VT0(15):26"/>
			</v:userDefs>
			<path d="M0 248.18 A10.1739 10.1739 0 0 1 20.35 248.18 A10.1739 10.1739 0 1 1 0 248.18 Z" class="st1"/>
		</g>
		<g id="shape30-9" v:mID="30" v:groupContext="shape" transform="translate(163.284,-105.662)">
			<title>Circle.30</title>
			<v:userDefs>
				<v:ud v:nameU="visVersion" v:val="VT0(15):26"/>
			</v:userDefs>
			<path d="M0 248.18 A10.1739 10.1739 0 1 1 20.35 248.18 A10.1739 10.1739 0 0 1 0 248.18 Z" class="st1"/>
		</g>
		<g id="shape31-11" v:mID="31" v:groupContext="shape" transform="translate(162.317,-56.2365)">
			<title>Circle.31</title>
			<v:userDefs>
				<v:ud v:nameU="visVersion" v:val="VT0(15):26"/>
			</v:userDefs>
			<path d="M0 248.18 A10.1739 10.1739 0 1 1 20.35 248.18 A10.1739 10.1739 0 0 1 0 248.18 Z" class="st1"/>
		</g>
		<g id="shape36-13" v:mID="36" v:groupContext="shape" transform="translate(164.8,-202.377)">
			<title>Circle.36</title>
			<v:userDefs>
				<v:ud v:nameU="visVersion" v:val="VT0(15):26"/>
			</v:userDefs>
			<path d="M0 248.18 A10.1739 10.1739 0 1 1 20.35 248.18 A10.1739 10.1739 0 0 1 0 248.18 Z" class="st1"/>
		</g>
		<g id="shape37-15" v:mID="37" v:groupContext="shape" transform="translate(163.284,-155.088)">
			<title>Circle.37</title>
			<v:userDefs>
				<v:ud v:nameU="visVersion" v:val="VT0(15):26"/>
			</v:userDefs>
			<path d="M0 248.18 A10.1739 10.1739 0 1 1 20.35 248.18 A10.1739 10.1739 0 0 1 0 248.18 Z" class="st1"/>
		</g>
		<g id="shape43-17" v:mID="43" v:groupContext="shape" transform="translate(224.328,-105.662)">
			<title>Circle.43</title>
			<v:userDefs>
				<v:ud v:nameU="visVersion" v:val="VT0(15):26"/>
			</v:userDefs>
			<path d="M0 248.18 A10.1739 10.1739 0 1 1 20.35 248.18 A10.1739 10.1739 0 0 1 0 248.18 Z" class="st1"/>
		</g>
		<g id="shape44-19" v:mID="44" v:groupContext="shape" transform="translate(223.36,-56.2365)">
			<title>Circle.44</title>
			<v:userDefs>
				<v:ud v:nameU="visVersion" v:val="VT0(15):26"/>
			</v:userDefs>
			<path d="M0 248.18 A10.1739 10.1739 0 1 1 20.35 248.18 A10.1739 10.1739 0 0 1 0 248.18 Z" class="st1"/>
		</g>
		<g id="shape49-21" v:mID="49" v:groupContext="shape" transform="translate(225.844,-202.377)">
			<title>Circle.49</title>
			<v:userDefs>
				<v:ud v:nameU="visVersion" v:val="VT0(15):26"/>
			</v:userDefs>
			<path d="M0 248.18 A10.1739 10.1739 0 1 1 20.35 248.18 A10.1739 10.1739 0 0 1 0 248.18 Z" class="st1"/>
		</g>
		<g id="shape50-23" v:mID="50" v:groupContext="shape" transform="translate(225.844,-155.088)">
			<title>Circle.50</title>
			<v:userDefs>
				<v:ud v:nameU="visVersion" v:val="VT0(15):26"/>
			</v:userDefs>
			<path d="M0 248.18 A10.1739 10.1739 0 1 1 20.35 248.18 A10.1739 10.1739 0 0 1 0 248.18 Z" class="st1"/>
		</g>
		<g id="shape54-25" v:mID="54" v:groupContext="shape" transform="translate(285.371,-155.088)">
			<title>Circle</title>
			<v:userDefs>
				<v:ud v:nameU="visVersion" v:val="VT0(15):26"/>
			</v:userDefs>
			<path d="M0 248.18 A10.1739 10.1739 0 1 1 20.35 248.18 A10.1739 10.1739 0 0 1 0 248.18 Z" class="st1"/>
		</g>
		<g id="shape148-27" v:mID="148" v:groupContext="shape" transform="translate(182.665,-66.4104)">
			<title>Sheet.148</title>
			<path d="M0 258.35 L40.7 258.35" class="st2"/>
		</g>
		<g id="shape149-30" v:mID="149" v:groupContext="shape" transform="translate(-14.8683,25.43) rotate(-49.8709)">
			<title>Sheet.149</title>
			<path d="M0 258.35 L64.64 258.35" class="st2"/>
		</g>
		<g id="shape150-33" v:mID="150" v:groupContext="shape" transform="translate(-54.0846,88.5254) rotate(-66.4039)">
			<title>Sheet.150</title>
			<path d="M0 258.35 L107.87 258.35" class="st2"/>
		</g>
		<g id="shape151-36" v:mID="151" v:groupContext="shape" transform="translate(-65.0969,118.735) rotate(-73.5396)">
			<title>Sheet.151</title>
			<path d="M0 258.35 L152.39 258.35" class="st2"/>
		</g>
		<g id="shape152-39" v:mID="152" v:groupContext="shape" transform="translate(-65.0969,118.735) rotate(-73.5396)">
			<title>Sheet.152</title>
			<path d="M0 258.35 L152.39 258.35" class="st2"/>
		</g>
		<g id="shape160-42" v:mID="160" v:groupContext="shape" transform="translate(384.996,-19.3418) rotate(51.2078)">
			<title>Sheet.160</title>
			<path d="M0 258.35 L63.41 258.35" class="st2"/>
		</g>
		<g id="shape161-45" v:mID="161" v:groupContext="shape" transform="translate(183.632,-115.836)">
			<title>Sheet.161</title>
			<path d="M0 258.35 L40.7 258.35" class="st2"/>
		</g>
		<g id="shape162-48" v:mID="162" v:groupContext="shape" transform="translate(-12.8224,-25.2666) rotate(-49.5013)">
			<title>Sheet.162</title>
			<path d="M0 258.35 L65 258.35" class="st2"/>
		</g>
		<g id="shape163-51" v:mID="163" v:groupContext="shape" transform="translate(-53.1478,39.1702) rotate(-66.4209)">
			<title>Sheet.163</title>
			<path d="M0 258.35 L105.53 258.35" class="st2"/>
		</g>
		<g id="shape172-54" v:mID="172" v:groupContext="shape" transform="translate(423.347,-3.2528) rotate(68.1049)">
			<title>Sheet.172</title>
			<path d="M0 258.35 L106.54 258.35" class="st2"/>
		</g>
		<g id="shape173-57" v:mID="173" v:groupContext="shape" transform="translate(383.076,-71.1279) rotate(50.533)">
			<title>Sheet.173</title>
			<path d="M0 258.35 L64.02 258.35" class="st2"/>
		</g>
		<g id="shape174-60" v:mID="174" v:groupContext="shape" transform="translate(183.632,-165.262)">
			<title>Sheet.174</title>
			<path d="M0 258.35 L42.21 258.35" class="st2"/>
		</g>
		<g id="shape175-63" v:mID="175" v:groupContext="shape" transform="translate(-9.10281,-78.9523) rotate(-48.247)">
			<title>Sheet.175</title>
			<path d="M0 258.35 L63.39 258.35" class="st2"/>
		</g>
		<g id="shape183-66" v:mID="183" v:groupContext="shape" transform="translate(435.095,-19.5562) rotate(75.3466)">
			<title>Sheet.183</title>
			<path d="M0 258.35 L151.05 258.35" class="st2"/>
		</g>
		<g id="shape184-69" v:mID="184" v:groupContext="shape" transform="translate(424.596,-51.2028) rotate(67.9469)">
			<title>Sheet.184</title>
			<path d="M0 258.35 L104.35 258.35" class="st2"/>
		</g>
		<g id="shape185-72" v:mID="185" v:groupContext="shape" transform="translate(380.97,-122.72) rotate(49.2857)">
			<title>Sheet.185</title>
			<path d="M0 258.35 L62.39 258.35" class="st2"/>
		</g>
		<g id="shape186-75" v:mID="186" v:groupContext="shape" transform="translate(185.148,-212.551)">
			<title>Sheet.186</title>
			<path d="M0 258.35 L40.7 258.35" class="st2"/>
		</g>
		<g id="shape228-78" v:mID="228" v:groupContext="shape" transform="translate(5.63955,91.6) rotate(-67.1459)">
			<title>Sheet.228</title>
			<path d="M0 258.35 L107.27 258.35" class="st2"/>
		</g>
		<g id="shape229-81" v:mID="229" v:groupContext="shape" transform="translate(45.232,-21.7023) rotate(-50.533)">
			<title>Sheet.229</title>
			<path d="M0 258.35 L64.02 258.35" class="st2"/>
		</g>
		<g id="shape230-84" v:mID="230" v:groupContext="shape" transform="translate(246.191,-165.262)">
			<title>Sheet.230</title>
			<path d="M0 258.35 L39.18 258.35" class="st2"/>
		</g>
		<g id="shape231-87" v:mID="231" v:groupContext="shape" transform="translate(445.132,-119.026) rotate(50.3578)">
			<title>Sheet.231</title>
			<path d="M0 258.35 L61.41 258.35" class="st2"/>
		</g>
		<g id="shape240-90" v:mID="240" v:groupContext="shape" transform="translate(164.8,304.149) rotate(180)">
			<title>Sheet.240</title>
			<path d="M0 258.35 L40.7 258.35" class="st2"/>
		</g>
		<g id="shape241-93" v:mID="241" v:groupContext="shape" transform="translate(-35.6563,257.913) rotate(-129.642)">
			<title>Sheet.241</title>
			<path d="M0 258.35 L61.41 258.35" class="st2"/>
		</g>
		<g id="shape242-96" v:mID="242" v:groupContext="shape" transform="translate(-76.1636,239.515) rotate(-112.053)">
			<title>Sheet.242</title>
			<path d="M0 258.35 L104.35 258.35" class="st2"/>
		</g>
		<g id="shape243-99" v:mID="243" v:groupContext="shape" transform="translate(-87.6299,257.294) rotate(-104.653)">
			<title>Sheet.243</title>
			<path d="M0 258.35 L151.05 258.35" class="st2"/>
		</g>
		<g id="shape251-102" v:mID="251" v:groupContext="shape" transform="translate(362.303,-3.25278) rotate(68.1049)">
			<title>Sheet.251</title>
			<path d="M0 258.35 L106.54 258.35" class="st2"/>
		</g>
		<g id="shape252-105" v:mID="252" v:groupContext="shape" transform="translate(322.032,-71.1279) rotate(50.533)">
			<title>Sheet.252</title>
			<path d="M0 258.35 L64.02 258.35" class="st2"/>
		</g>
		<g id="shape254-108" v:mID="254" v:groupContext="shape" transform="translate(122.589,-165.262)">
			<title>Sheet.254</title>
			<path d="M0 258.35 L40.7 258.35" class="st2"/>
		</g>
		<g id="shape255-111" v:mID="255" v:groupContext="shape" transform="translate(-70.1463,-78.9523) rotate(-48.247)">
			<title>Sheet.255</title>
			<path d="M0 258.35 L63.39 258.35" class="st2"/>
		</g>
		<g id="shape263-114" v:mID="263" v:groupContext="shape" transform="translate(323.952,-19.3418) rotate(51.2078)">
			<title>Sheet.263</title>
			<path d="M0 258.35 L63.41 258.35" class="st2"/>
		</g>
		<g id="shape264-117" v:mID="264" v:groupContext="shape" transform="translate(122.589,-115.836)">
			<title>Sheet.264</title>
			<path d="M0 258.35 L40.7 258.35" class="st2"/>
		</g>
		<g id="shape265-120" v:mID="265" v:groupContext="shape" transform="translate(-76.8549,-21.7022) rotate(-50.533)">
			<title>Sheet.265</title>
			<path d="M0 258.35 L64.02 258.35" class="st2"/>
		</g>
		<g id="shape267-123" v:mID="267" v:groupContext="shape" transform="translate(-114.191,39.1702) rotate(-66.4209)">
			<title>Sheet.267</title>
			<path d="M0 258.35 L105.53 258.35" class="st2"/>
		</g>
		<g id="shape276-126" v:mID="276" v:groupContext="shape" transform="translate(121.621,-66.4104)">
			<title>Sheet.276</title>
			<path d="M0 258.35 L40.7 258.35" class="st2"/>
		</g>
		<g id="shape277-129" v:mID="277" v:groupContext="shape" transform="translate(-75.9118,25.43) rotate(-49.871)">
			<title>Sheet.277</title>
			<path d="M0 258.35 L64.64 258.35" class="st2"/>
		</g>
		<g id="shape278-132" v:mID="278" v:groupContext="shape" transform="translate(-116.447,91.6) rotate(-67.1459)">
			<title>Sheet.278</title>
			<path d="M0 258.35 L107.27 258.35" class="st2"/>
		</g>
		<g id="shape279-135" v:mID="279" v:groupContext="shape" transform="translate(-126.14,118.735) rotate(-73.5396)">
			<title>Sheet.279</title>
			<path d="M0 258.35 L152.39 258.35" class="st2"/>
		</g>
		<g id="shape285-138" v:mID="285" v:groupContext="shape" transform="translate(89.7375,-18.125)">
			<title>Sheet.285</title>
			<desc>Input Layer</desc>
			<v:textBlock v:margins="rect(4,4,4,4)" v:tabSpace="42.5197"/>
			<v:textRect cx="22.6772" cy="240.588" width="45.36" height="35.5227"/>
			<rect x="0" y="222.827" width="45.3543" height="35.5227" class="st3"/>
			<text x="13.18" y="237.89" class="st4" v:langID="1033"><v:paragraph v:horizAlign="1"/><v:tabList/>Input <tspan
						x="12.19" dy="1.2em" class="st5">Layer</tspan></text>		</g>
		<g id="shape286-142" v:mID="286" v:groupContext="shape" transform="translate(150.781,-18.125)">
			<title>Sheet.286</title>
			<desc>Hidden Layer 1</desc>
			<v:textBlock v:margins="rect(4,4,4,4)" v:tabSpace="42.5197"/>
			<v:textRect cx="22.6772" cy="240.588" width="45.36" height="35.5227"/>
			<rect x="0" y="222.827" width="45.3543" height="35.5227" class="st3"/>
			<text x="9.43" y="237.89" class="st4" v:langID="1033"><v:paragraph v:horizAlign="1"/><v:tabList/>Hidden <tspan x="8.81"
						dy="1.2em" class="st5">Layer 1</tspan></text>		</g>
		<g id="shape287-146" v:mID="287" v:groupContext="shape" transform="translate(211.824,-18.125)">
			<title>Sheet.287</title>
			<desc>Hidden Layer 2</desc>
			<v:textBlock v:margins="rect(4,4,4,4)" v:tabSpace="42.5197"/>
			<v:textRect cx="22.6772" cy="240.588" width="45.36" height="35.5227"/>
			<rect x="0" y="222.827" width="45.3543" height="35.5227" class="st3"/>
			<text x="9.43" y="237.89" class="st4" v:langID="1033"><v:paragraph v:horizAlign="1"/><v:tabList/>Hidden <tspan x="8.81"
						dy="1.2em" class="st5">Layer 2</tspan></text>		</g>
		<g id="shape288-150" v:mID="288" v:groupContext="shape" transform="translate(272.868,-18.125)">
			<title>Sheet.288</title>
			<desc>Output Layer</desc>
			<v:textBlock v:margins="rect(4,4,4,4)" v:tabSpace="42.5197"/>
			<v:textRect cx="22.6772" cy="240.588" width="45.36" height="35.5227"/>
			<rect x="0" y="222.827" width="45.3543" height="35.5227" class="st3"/>
			<text x="10.18" y="237.89" class="st4" v:langID="1033"><v:paragraph v:horizAlign="1"/><v:tabList/>Output <tspan
						x="12.19" dy="1.2em" class="st5">Layer</tspan></text>		</g>
		<g id="shape1007-154" v:mID="1007" v:groupContext="shape" transform="translate(305.719,-165.262)">
			<title>Sheet.1007</title>
			<desc>CO2 (t)</desc>
			<v:textBlock v:margins="rect(4,4,4,4)" v:tabSpace="42.5197"/>
			<v:textRect cx="27.6378" cy="258.35" width="55.28" height="0"/>
			<path d="M0 258.35 L50.43 258.35" class="st6"/>
			<rect v:rectContext="textBkgnd" x="13.3907" y="251.15" width="28.4944" height="14.4001" class="st8"/>
			<text x="13.39" y="261.95" class="st9" v:langID="1033"><v:paragraph v:horizAlign="1"/><v:tabList/>CO<tspan class="st10">2 (t)</tspan></text>		</g>
		<g id="shape1008-163" v:mID="1008" v:groupContext="shape" transform="translate(285.371,-105.662)">
			<title>Circle.1008</title>
			<v:userDefs>
				<v:ud v:nameU="visVersion" v:val="VT0(15):26"/>
			</v:userDefs>
			<path d="M0 248.18 A10.1739 10.1739 0 1 1 20.35 248.18 A10.1739 10.1739 0 0 1 0 248.18 Z" class="st1"/>
		</g>
		<g id="shape1009-165" v:mID="1009" v:groupContext="shape" transform="translate(46.1752,25.43) rotate(-49.8709)">
			<title>Sheet.1009</title>
			<path d="M0 258.35 L64.64 258.35" class="st2"/>
		</g>
		<g id="shape1010-168" v:mID="1010" v:groupContext="shape" transform="translate(244.676,-115.836)">
			<title>Sheet.1010</title>
			<path d="M0 258.35 L40.7 258.35" class="st2"/>
		</g>
		<g id="shape1011-171" v:mID="1011" v:groupContext="shape" transform="translate(448.648,-67.399) rotate(51.5961)">
			<title>Sheet.1011</title>
			<path d="M0 258.35 L63.07 258.35" class="st2"/>
		</g>
		<g id="shape1012-174" v:mID="1012" v:groupContext="shape" transform="translate(485.639,-51.2028) rotate(67.9468)">
			<title>Sheet.1012</title>
			<path d="M0 258.35 L104.35 258.35" class="st2"/>
		</g>
		<g id="shape1013-177" v:mID="1013" v:groupContext="shape" v:layerMember="1" transform="translate(185.148,-205.464)">
			<title>Dynamic connector.1013</title>
			<desc>h</desc>
			<v:textBlock v:margins="rect(4,4,4,4)" v:tabSpace="42.5197"/>
			<v:textRect cx="-10.1739" cy="230.217" width="45" height="18.8036"/>
			<path d="M0 251.26 L10.87 251.26 L10.87 230.22 L-31.22 230.22 L-31.22 251.26 L-25.63 251.26" class="st11"/>
			<rect v:rectContext="textBkgnd" x="-12.6766" y="224.817" width="5.00537" height="10.7998" class="st8"/>
			<text x="-12.68" y="232.92" class="st13" v:langID="1033"><v:paragraph v:horizAlign="1"/><v:tabList/>h</text>		</g>
		<g id="shape1014-185" v:mID="1014" v:groupContext="shape" v:layerMember="1" transform="translate(183.632,-158.175)">
			<title>Dynamic connector.1014</title>
			<desc>h</desc>
			<v:textBlock v:margins="rect(4,4,4,4)" v:tabSpace="42.5197"/>
			<v:textRect cx="-10.1739" cy="230.217" width="40" height="17.6837"/>
			<path d="M0 251.26 L10.87 251.26 L10.87 230.22 L-31.22 230.22 L-31.22 251.26 L-25.63 251.26" class="st11"/>
			<rect v:rectContext="textBkgnd" x="-12.3986" y="225.377" width="4.44919" height="9.68005" class="st14"/>
			<text x="-12.4" y="232.64" class="st15" v:langID="1033"><v:paragraph v:horizAlign="1"/><v:tabList/>h</text>		</g>
		<g id="shape1015-192" v:mID="1015" v:groupContext="shape" v:layerMember="1" transform="translate(183.632,-122.923)">
			<title>Dynamic connector.1015</title>
			<desc>h</desc>
			<v:textBlock v:margins="rect(4,4,4,4)" v:tabSpace="42.5197"/>
			<v:textRect cx="-10.1739" cy="246.627" width="40" height="17.6837"/>
			<path d="M0 265.44 L10.87 265.44 L10.87 246.63 L-31.22 246.63 L-31.22 265.44 L-25.63 265.44" class="st11"/>
			<rect v:rectContext="textBkgnd" x="-12.3986" y="241.787" width="4.44919" height="9.68005" class="st14"/>
			<text x="-12.4" y="249.05" class="st15" v:langID="1033"><v:paragraph v:horizAlign="1"/><v:tabList/>h</text>		</g>
		<g id="shape1016-199" v:mID="1016" v:groupContext="shape" v:layerMember="1" transform="translate(182.665,-73.497)">
			<title>Dynamic connector.1016</title>
			<desc>h</desc>
			<v:textBlock v:margins="rect(4,4,4,4)" v:tabSpace="42.5197"/>
			<v:textRect cx="-10.1739" cy="244.39" width="40" height="17.6837"/>
			<path d="M0 265.44 L10.87 265.44 L10.87 244.39 L-31.22 244.39 L-31.22 265.44 L-25.63 265.44" class="st11"/>
			<rect v:rectContext="textBkgnd" x="-12.3986" y="239.551" width="4.44919" height="9.68005" class="st14"/>
			<text x="-12.4" y="246.81" class="st15" v:langID="1033"><v:paragraph v:horizAlign="1"/><v:tabList/>h</text>		</g>
		<g id="shape1017-206" v:mID="1017" v:groupContext="shape" v:layerMember="1" transform="translate(243.708,-73.497)">
			<title>Dynamic connector.1017</title>
			<desc>h</desc>
			<v:textBlock v:margins="rect(4,4,4,4)" v:tabSpace="42.5197"/>
			<v:textRect cx="-10.1739" cy="244.39" width="40" height="17.6837"/>
			<path d="M0 265.44 L10.87 265.44 L10.87 244.39 L-31.22 244.39 L-31.22 265.44 L-25.63 265.44" class="st11"/>
			<rect v:rectContext="textBkgnd" x="-12.3986" y="239.551" width="4.44919" height="9.68005" class="st14"/>
			<text x="-12.4" y="246.81" class="st15" v:langID="1033"><v:paragraph v:horizAlign="1"/><v:tabList/>h</text>		</g>
		<g id="shape1018-213" v:mID="1018" v:groupContext="shape" v:layerMember="1" transform="translate(244.676,-122.923)">
			<title>Dynamic connector.1018</title>
			<desc>h</desc>
			<v:textBlock v:margins="rect(4,4,4,4)" v:tabSpace="42.5197"/>
			<v:textRect cx="-10.1739" cy="246.627" width="40" height="17.6837"/>
			<path d="M0 265.44 L10.87 265.44 L10.87 246.63 L-31.22 246.63 L-31.22 265.44 L-25.63 265.44" class="st11"/>
			<rect v:rectContext="textBkgnd" x="-12.3986" y="241.787" width="4.44919" height="9.68005" class="st14"/>
			<text x="-12.4" y="249.05" class="st15" v:langID="1033"><v:paragraph v:horizAlign="1"/><v:tabList/>h</text>		</g>
		<g id="shape1019-220" v:mID="1019" v:groupContext="shape" v:layerMember="1" transform="translate(246.191,-158.175)">
			<title>Dynamic connector.1019</title>
			<desc>h</desc>
			<v:textBlock v:margins="rect(4,4,4,4)" v:tabSpace="42.5197"/>
			<v:textRect cx="-10.1739" cy="230.217" width="40" height="17.6837"/>
			<path d="M0 251.26 L10.87 251.26 L10.87 230.22 L-31.22 230.22 L-31.22 251.26 L-25.63 251.26" class="st11"/>
			<rect v:rectContext="textBkgnd" x="-12.3986" y="225.377" width="4.44919" height="9.68005" class="st14"/>
			<text x="-12.4" y="232.64" class="st15" v:langID="1033"><v:paragraph v:horizAlign="1"/><v:tabList/>h</text>		</g>
		<g id="shape1020-227" v:mID="1020" v:groupContext="shape" v:layerMember="1" transform="translate(246.191,-205.464)">
			<title>Dynamic connector.1020</title>
			<desc>h</desc>
			<v:textBlock v:margins="rect(4,4,4,4)" v:tabSpace="42.5197"/>
			<v:textRect cx="-10.1739" cy="230.217" width="40" height="17.6837"/>
			<path d="M0 251.26 L10.87 251.26 L10.87 230.22 L-31.22 230.22 L-31.22 251.26 L-25.63 251.26" class="st11"/>
			<rect v:rectContext="textBkgnd" x="-12.3986" y="225.377" width="4.44919" height="9.68005" class="st14"/>
			<text x="-12.4" y="232.64" class="st15" v:langID="1033"><v:paragraph v:horizAlign="1"/><v:tabList/>h</text>		</g>
		<g id="shape1021-234" v:mID="1021" v:groupContext="shape" transform="translate(305.719,-115.836)">
			<title>Sheet.1021</title>
			<desc>NaOH (t)</desc>
			<v:textBlock v:margins="rect(4,4,4,4)" v:tabSpace="42.5197"/>
			<v:textRect cx="27.6378" cy="258.35" width="55.28" height="0"/>
			<path d="M0 258.35 L50.43 258.35" class="st6"/>
			<rect v:rectContext="textBkgnd" x="7.22351" y="251.15" width="40.8285" height="14.4001" class="st8"/>
			<text x="7.22" y="261.95" class="st9" v:langID="1033"><v:paragraph v:horizAlign="1"/><v:tabList/>NaOH<tspan
						class="st10"> </tspan><tspan class="st10">(t)</tspan></text>		</g>
		<g id="shape1022-243" v:mID="1022" v:groupContext="shape" transform="translate(24.8933,-212.598)">
			<title>Sheet.1022</title>
			<desc>CO2 (t=0)</desc>
			<v:textBlock v:margins="rect(4,4,4,4)" v:tabSpace="42.5197"/>
			<v:textRect cx="39.3338" cy="258.35" width="78.67" height="0"/>
			<path d="M0 258.35 L73.82 258.35" class="st6"/>
			<rect v:rectContext="textBkgnd" x="21.8081" y="252.95" width="35.0513" height="10.7998" class="st8"/>
			<text x="21.81" y="261.05" class="st16" v:langID="1033"><v:paragraph v:horizAlign="1"/><v:tabList/>CO<tspan
						class="st17">2</tspan><tspan class="st18"> </tspan><tspan class="st18">(t=0)</tspan></text>		</g>
		<g id="shape1023-253" v:mID="1023" v:groupContext="shape" transform="translate(23.9982,-165.309)">
			<title>Sheet.1023</title>
			<desc>NaOH (t=0)</desc>
			<v:textBlock v:margins="rect(4,4,4,4)" v:tabSpace="42.5197"/>
			<v:textRect cx="39.0234" cy="258.35" width="78.05" height="0"/>
			<path d="M0 258.35 L73.2 258.35" class="st6"/>
			<rect v:rectContext="textBkgnd" x="17.2477" y="252.95" width="43.5517" height="10.7998" class="st8"/>
			<text x="17.25" y="261.05" class="st16" v:langID="1033"><v:paragraph v:horizAlign="1"/><v:tabList/>NaOH<tspan
						class="st18"> </tspan><tspan class="st18">(t=0)</tspan></text>		</g>
		<g id="shape1024-262" v:mID="1024" v:groupContext="shape" transform="translate(24.8933,-115.884)">
			<title>Sheet.1024</title>
			<desc>CO2 (i)</desc>
			<v:textBlock v:margins="rect(4,4,4,4)" v:tabSpace="42.5197"/>
			<v:textRect cx="38.5758" cy="258.35" width="77.16" height="0"/>
			<path d="M0 258.35 L72.3 258.35" class="st6"/>
			<rect v:rectContext="textBkgnd" x="25.5504" y="252.95" width="26.0511" height="10.7998" class="st8"/>
			<text x="25.55" y="261.05" class="st16" v:langID="1033"><v:paragraph v:horizAlign="1"/><v:tabList/>CO<tspan
						class="st17">2</tspan><tspan class="st18"> </tspan><tspan class="st18">(i)</tspan></text>		</g>
		<g id="shape1025-272" v:mID="1025" v:groupContext="shape" transform="translate(27.2275,-66.4104)">
			<title>Sheet.1025</title>
			<desc>NaOH (i)</desc>
			<v:textBlock v:margins="rect(4,4,4,4)" v:tabSpace="42.5197"/>
			<v:textRect cx="37.0229" cy="258.35" width="74.05" height="0"/>
			<path d="M0 258.35 L69.2 258.35" class="st6"/>
			<rect v:rectContext="textBkgnd" x="19.7471" y="252.95" width="34.5515" height="10.7998" class="st14"/>
			<text x="19.75" y="261.05" class="st16" v:langID="1033"><v:paragraph v:horizAlign="1"/><v:tabList/>NaOH<tspan
						class="st18"> </tspan><tspan class="st18">(i)</tspan></text>		</g>
	</g>
</svg>
